<svg width="73" height="72" viewBox="0 0 73 72" fill="none" xmlns="http://www.w3.org/2000/svg">
<path d="M33.1016 2.90357H16.0306L16.0308 29.2622H8.92871V35.9485H16.0308L16.031 62.2691H35.9212H35.9218C35.9218 62.2691 63.889 64.6133 63.889 33.0827C63.8892 2.06495 37.1401 2.90357 33.1016 2.90357ZM35.466 51.2955H27.2342V35.9485H39.4944V29.2622H27.2342V13.8766H35.0816C38.0167 13.8766 52.7833 15.058 52.8068 33.2962C52.8304 51.5345 37.5811 51.2955 35.466 51.2955Z" fill="#C9FF3C"/>
<path d="M55.0229 69.4373H17.7946C17.1383 69.4373 16.6064 68.9054 16.6064 68.2492C16.6064 67.5929 17.1383 67.061 17.7946 67.061H55.0229C55.6792 67.061 56.211 67.5929 56.211 68.2492C56.211 68.9054 55.6792 69.4373 55.0229 69.4373Z" fill="#C9FF3C"/>
</svg>
