<svg width="73" height="72" viewBox="0 0 73 72" fill="none" xmlns="http://www.w3.org/2000/svg">
<path d="M54.7529 36.7022C54.6739 36.6973 36.8136 47.2816 36.5796 47.3721C36.5269 47.3416 18.5096 36.6783 18.4238 36.689C18.4676 36.7529 36.5675 62.3086 36.5796 62.3086C36.5918 62.3086 54.7529 36.7022 54.7529 36.7022Z" fill="#C9FF3C"/>
<path d="M36.589 2.90137L18.4834 33.1826L36.589 43.9072L54.6947 33.1826L36.589 2.90137Z" fill="#C9FF3C"/>
<path d="M55.1958 69.4373H17.9674C17.3112 69.4373 16.7793 68.9054 16.7793 68.2492C16.7793 67.5929 17.3112 67.061 17.9674 67.061H55.1958C55.852 67.061 56.3839 67.5929 56.3839 68.2492C56.3839 68.9054 55.852 69.4373 55.1958 69.4373Z" fill="#C9FF3C"/>
</svg>
