<svg width="163" height="27" viewBox="0 0 163 27" fill="none" xmlns="http://www.w3.org/2000/svg">
<path d="M9.27912 26.7883C6.13594 26.7883 3.81428 26.1216 2.31412 24.7881C0.83778 23.4308 0.0996094 21.5854 0.0996094 19.2518C0.0996094 18.8946 0.111515 18.6089 0.135327 18.3946H6.70743C6.65981 18.7756 6.636 19.0375 6.636 19.1804C6.636 21.2044 7.73135 22.2164 9.92205 22.2164C11.065 22.2164 11.958 21.9664 12.6009 21.4663C13.2438 20.9663 13.5653 20.2995 13.5653 19.4661C13.5653 18.8946 13.4105 18.4065 13.1009 18.0017C12.7914 17.5731 12.3866 17.2159 11.8865 16.9301C11.3865 16.6206 10.6721 16.2396 9.74346 15.7872L8.10043 14.9656C6.93365 14.3465 5.98117 13.7393 5.24299 13.144C4.52864 12.5487 3.98096 11.8701 3.59997 11.1081C3.21898 10.3223 3.02848 9.39365 3.02848 8.32211C3.02848 6.67908 3.44519 5.25036 4.27861 4.03595C5.11203 2.82154 6.27882 1.89288 7.77897 1.24995C9.27912 0.60703 10.9936 0.285568 12.9224 0.285568C14.7559 0.285568 16.3037 0.583218 17.5657 1.17852C18.8515 1.75 19.804 2.57152 20.4231 3.64306C21.066 4.69078 21.3875 5.94091 21.3875 7.39344C21.3875 7.79824 21.3756 8.1078 21.3518 8.32211H15.2083C15.2559 7.84587 15.2797 7.5125 15.2797 7.32201C15.2797 6.5124 15.0297 5.86947 14.5297 5.39324C14.0534 4.917 13.3272 4.67888 12.3509 4.67888C11.3508 4.67888 10.565 4.9289 9.99348 5.42895C9.44581 5.92901 9.17197 6.58383 9.17197 7.39344C9.17197 7.94112 9.31484 8.40545 9.60059 8.78644C9.88633 9.14362 10.2792 9.46508 10.7793 9.75083C11.2793 10.0366 12.0532 10.4295 13.1009 10.9295L14.101 11.3939C15.506 12.0606 16.6132 12.6797 17.4228 13.2512C18.2562 13.8227 18.9111 14.5251 19.3873 15.3585C19.8635 16.192 20.1017 17.2278 20.1017 18.466C20.1017 20.2043 19.6492 21.7044 18.7444 22.9665C17.8395 24.2047 16.5656 25.1572 14.9226 25.8239C13.2795 26.4668 11.3984 26.7883 9.27912 26.7883Z" fill="white"/>
<path d="M23.8903 0.928492H29.8195L24.7832 26.1454H18.854L23.8903 0.928492Z" fill="white"/>
<path d="M31.7594 0.928492H38.3315L41.6533 16.573L51.2257 0.928492H58.4407L53.4045 26.1454H47.7967L50.9756 10.3937L41.3675 26.1454H38.7601L35.4741 10.3937L32.3309 26.1454H26.7232L31.7594 0.928492Z" fill="white"/>
<path d="M60.3826 0.928492H68.4906C71.5385 0.928492 73.753 1.49998 75.1341 2.64295C76.5152 3.78593 77.2057 5.44086 77.2057 7.60775C77.2057 9.36983 76.8248 10.9057 76.0628 12.2154C75.3246 13.525 74.2531 14.537 72.8482 15.2514C71.4671 15.9658 69.824 16.3229 67.9191 16.3229H63.2757L61.2755 26.1454H55.3464L60.3826 0.928492ZM67.0261 11.8582C68.3834 11.8582 69.3954 11.5486 70.0621 10.9295C70.7527 10.3104 71.098 9.42937 71.098 8.28639C71.098 7.28629 70.7884 6.56002 70.1693 6.10759C69.5502 5.63136 68.5739 5.39324 67.2404 5.39324H65.4545L64.133 11.8582H67.0261Z" fill="white"/>
<path d="M78.7159 0.928492H84.6451L80.6804 20.9663H88.6455L87.6097 26.1454H73.6797L78.7159 0.928492Z" fill="white"/>
<path d="M92.3753 0.928492H108.055L107.127 5.75041H97.3758L96.3042 10.9295H105.948L104.984 15.7872H95.3756L94.2683 21.3234H103.984L103.019 26.1454H87.339L92.3753 0.928492Z" fill="white"/>
<path d="M109.209 0.928492H117.317C120.365 0.928492 122.579 1.49998 123.96 2.64295C125.341 3.78593 126.032 5.44086 126.032 7.60775C126.032 9.36983 125.651 10.9057 124.889 12.2154C124.151 13.525 123.079 14.537 121.674 15.2514C120.293 15.9658 118.65 16.3229 116.745 16.3229H112.102L110.102 26.1454H104.173L109.209 0.928492ZM115.852 11.8582C117.21 11.8582 118.222 11.5486 118.888 10.9295C119.579 10.3104 119.924 9.42937 119.924 8.28639C119.924 7.28629 119.615 6.56002 118.995 6.10759C118.376 5.63136 117.4 5.39324 116.067 5.39324H114.281L112.959 11.8582H115.852Z" fill="#C9FF3C"/>
<path d="M136.23 21.252H126.872L124.479 26.1454H118.085L130.944 0.928492H139.909L142.695 26.1454H136.659L136.23 21.252ZM135.802 16.7158L134.801 5.3218H134.73L129.122 16.7158H135.802Z" fill="#C9FF3C"/>
<path d="M146.245 15.3228L141.316 0.928492H147.209L150.174 9.53652L155.96 0.928492H162.818L152.174 15.3228L149.995 26.1454H144.066L146.245 15.3228Z" fill="#C9FF3C"/>
</svg>
