<svg width="72" height="72" viewBox="0 0 72 72" fill="none" xmlns="http://www.w3.org/2000/svg">
<path d="M8.31553 61.9691V35.8443L28.1273 50.7551V61.9691H33.1839V49.7024C33.1821 48.7784 32.747 47.9085 32.009 47.3526L7.98226 29.2632C6.66976 28.2884 4.81547 28.562 3.84061 29.8745C3.46436 30.3811 3.25981 30.9947 3.25684 31.6258V61.9691H8.31553Z" fill="#C9FA49"/>
<path d="M63.1078 61.9694V35.8446L43.2958 50.7553V61.9694H38.2393V49.7027C38.2412 48.7787 38.6761 47.9088 39.4141 47.3529L63.4409 29.271C64.7533 28.2962 66.6076 28.5698 67.5825 29.8823C67.9574 30.3869 68.1617 30.9978 68.1663 31.6263V61.9694H63.1078Z" fill="#C9FA49"/>
<path d="M54.3256 69.098H17.0973C16.4411 69.098 15.9092 68.5661 15.9092 67.9098C15.9092 67.2536 16.4411 66.7217 17.0973 66.7217H54.3256C54.9819 66.7217 55.5138 67.2536 55.5138 67.9098C55.5138 68.5661 54.9819 69.098 54.3256 69.098Z" fill="#C9FA49"/>
</svg>
