<svg width="72" height="72" viewBox="0 0 72 72" fill="none" xmlns="http://www.w3.org/2000/svg">
<path d="M36.004 2.5625C19.6042 2.5625 6.28294 15.8791 6.30374 32.262C6.30789 35.5397 6.83067 38.6926 7.81168 41.6419H16.6988V16.6572L36.004 35.9599L55.3085 16.6572V41.6423H64.1974C65.1799 38.6932 65.7 35.5403 65.7057 32.2624C65.7338 15.8627 52.4059 2.56646 36.004 2.56646V2.5625Z" fill="#C9FA49"/>
<path d="M31.5644 40.397L23.1393 31.9727V47.6945H16.6982L10.6201 47.6957C15.8337 56.2479 25.2558 61.969 36.0041 61.969C46.7524 61.969 56.1751 56.2467 61.3897 47.6943H48.8669V31.9727L40.4414 40.397L36.0031 44.8347L31.5644 40.397Z" fill="#C9FA49"/>
<path d="M54.6186 69.098H17.3903C16.734 69.098 16.2021 68.5661 16.2021 67.9098C16.2021 67.2536 16.734 66.7217 17.3903 66.7217H54.6186C55.2749 66.7217 55.8068 67.2536 55.8068 67.9098C55.8068 68.5661 55.2749 69.098 54.6186 69.098Z" fill="#C9FA49"/>
</svg>
