<svg width="72" height="72" viewBox="0 0 72 72" fill="none" xmlns="http://www.w3.org/2000/svg">
<path d="M53.9154 5.64469L41.5059 24.0608C40.6479 25.3149 42.298 26.8331 43.4861 25.7771L55.6976 15.1498C56.0277 14.8858 56.4897 15.0838 56.4897 15.5458V48.7478C56.4897 49.2098 55.8956 49.4078 55.6317 49.0779L18.6673 4.85259C17.4792 3.40049 15.7629 2.6084 13.8488 2.6084H12.5286C9.09627 2.6084 6.25781 5.44666 6.25781 8.94514V55.6786C6.25781 59.177 9.09608 62.0153 12.5945 62.0153C14.7728 62.0153 16.819 60.8931 18.0071 58.979L30.4166 40.5629C31.2747 39.3088 29.6245 37.7906 28.4364 38.8466L16.2249 49.4078C15.8948 49.6717 15.4328 49.4737 15.4328 49.0117V15.8759C15.4328 15.414 16.0269 15.2159 16.2908 15.5458L53.2552 59.7709C54.4433 61.223 56.2256 62.0151 58.0737 62.0151H59.3939C62.8924 62.0151 65.7307 59.1768 65.7307 55.6784V8.94514C65.7307 5.44666 62.8924 2.6084 59.3939 2.6084C57.1497 2.6084 55.1036 3.73059 53.9154 5.64469Z" fill="#C9FA49"/>
<path d="M54.6088 69.1443H17.3805C16.7243 69.1443 16.1924 68.6125 16.1924 67.9562C16.1924 67.3 16.7243 66.7681 17.3805 66.7681H54.6088C55.2651 66.7681 55.797 67.3 55.797 67.9562C55.797 68.6125 55.2651 69.1443 54.6088 69.1443Z" fill="#C9FA49"/>
</svg>
