<svg width="72" height="72" viewBox="0 0 72 72" fill="none" xmlns="http://www.w3.org/2000/svg">
<path d="M36.2919 15.0696C42.2085 15.0696 47.0048 12.2801 47.0048 8.83899C47.0048 5.39793 42.2085 2.6084 36.2919 2.6084C30.3754 2.6084 25.5791 5.39793 25.5791 8.83899C25.5791 12.2801 30.3754 15.0696 36.2919 15.0696Z" fill="#C9FF3C"/>
<path d="M36.2919 62.0159C42.2085 62.0159 47.0048 59.2263 47.0048 55.7853C47.0048 52.3442 42.2085 49.5547 36.2919 49.5547C30.3754 49.5547 25.5791 52.3442 25.5791 55.7853C25.5791 59.2263 30.3754 62.0159 36.2919 62.0159Z" fill="#C9FF3C"/>
<path d="M21.3616 23.6942C24.3198 18.5706 24.3007 13.0214 21.3188 11.2998C18.337 9.57816 13.5216 12.336 10.5634 17.4597C7.60514 22.5833 7.6243 28.1325 10.6062 29.8541C13.588 31.5757 18.4034 28.8179 21.3616 23.6942Z" fill="#C9FF3C"/>
<path d="M62.0126 47.1652C64.9708 42.0415 64.9533 36.4933 61.9734 34.7728C58.9935 33.0523 54.1798 35.8111 51.2216 40.9348C48.2633 46.0584 48.2809 51.6066 51.2608 53.3271C54.2406 55.0476 59.0544 52.2888 62.0126 47.1652Z" fill="#C9FF3C"/>
<path d="M21.3208 53.3242C24.3026 51.6026 24.3218 46.0534 21.3636 40.9298C18.4053 35.8062 13.59 33.0483 10.6081 34.7699C7.62625 36.4916 7.60709 42.0407 10.5653 47.1644C13.5235 52.288 18.3389 55.0459 21.3208 53.3242Z" fill="#C9FF3C"/>
<path d="M61.9763 29.8556C64.9562 28.1351 64.9738 22.5869 62.0155 17.4633C59.0573 12.3396 54.2436 9.58083 51.2637 11.3013C48.2838 13.0218 48.2663 18.57 51.2245 23.6937C54.1827 28.8173 58.9965 31.5761 61.9763 29.8556Z" fill="#C9FF3C"/>
<path d="M54.9028 69.1443H17.6745C17.0182 69.1443 16.4863 68.6125 16.4863 67.9562C16.4863 67.3 17.0182 66.7681 17.6745 66.7681H54.9028C55.559 66.7681 56.0909 67.3 56.0909 67.9562C56.0909 68.6125 55.559 69.1443 54.9028 69.1443Z" fill="#C9FF3C"/>
</svg>
