<svg width="72" height="72" viewBox="0 0 72 72" fill="none" xmlns="http://www.w3.org/2000/svg">
<path d="M52.8132 21.4287C51.5972 20.7338 50.0336 20.7338 48.6438 21.4287L38.9154 27.1614L32.3139 30.8096L22.7591 36.5424C21.543 37.2372 19.9794 37.2372 18.5897 36.5424L11.1197 32.0257C9.90362 31.3308 9.03509 29.9411 9.03509 28.3775V19.6914C9.03509 18.3017 9.72995 16.9118 11.1197 16.0432L18.5897 11.7002C19.8058 11.0053 21.3693 11.0053 22.7591 11.7002L30.2291 16.2169C31.4452 16.9118 32.3137 18.3015 32.3137 19.8651V25.5978L38.9152 21.776V15.8696C38.9152 14.4798 38.2203 13.0899 36.8306 12.2214L22.9329 4.0563C21.7169 3.36144 20.1533 3.36144 18.7636 4.0563L4.51838 12.3951C3.12846 13.0899 2.43359 14.4796 2.43359 15.8696V32.1995C2.43359 33.5893 3.12846 34.9792 4.51818 35.8477L18.5897 44.0126C19.8058 44.7075 21.3693 44.7075 22.7591 44.0126L32.3139 38.4535L38.9154 34.6317L48.4702 29.0726C49.6862 28.3777 51.2498 28.3777 52.6396 29.0726L60.1096 33.4156C61.3256 34.1105 62.1942 35.5002 62.1942 37.0638V45.7499C62.1942 47.1396 61.4993 48.5295 60.1096 49.398L52.8132 53.7411C51.5972 54.4359 50.0336 54.4359 48.6438 53.7411L41.1738 49.398C39.9578 48.7032 39.0892 47.3134 39.0892 45.7499V40.1908L32.4877 44.0126V49.7454C32.4877 51.1351 33.1826 52.525 34.5723 53.3935L48.6438 61.5584C49.8599 62.2533 51.4235 62.2533 52.8132 61.5584L66.8847 53.3935C68.1008 52.6987 68.9693 51.309 68.9693 49.7454V33.2417C68.9693 31.852 68.2745 30.4621 66.8847 29.5936L52.8132 21.4287Z" fill="#C9FA49"/>
<path d="M54.3159 69.1443H17.0876C16.4313 69.1443 15.8994 68.6125 15.8994 67.9562C15.8994 67.3 16.4313 66.7681 17.0876 66.7681H54.3159C54.9721 66.7681 55.504 67.3 55.504 67.9562C55.504 68.6125 54.9721 69.1443 54.3159 69.1443Z" fill="#C9FA49"/>
</svg>
