<svg width="72" height="72" viewBox="0 0 72 72" fill="none" xmlns="http://www.w3.org/2000/svg">
<path d="M62.2252 38.0241C61.6374 33.6413 60.2345 30.1873 59.0936 27.9091C60.6042 26.2405 61.0812 24.1962 61.9596 20.4169C62.5252 17.9838 62.0828 3.53325 61.2961 3.07185C60.7905 2.77799 59.5075 2.46511 54.0187 6.78162C49.5283 10.3114 47.1964 12.1441 45.8376 14.416C44.3302 13.7683 35.6309 10.3365 26.1858 14.416C24.9313 12.3841 22.1948 10.2353 16.9524 6.12121C13.3975 3.33087 11.7354 2.49977 10.7337 3.07185C9.86789 3.5679 9.21679 18.7232 9.80453 20.9478C10.5913 23.9403 11.1697 26.1332 12.9171 27.9218C10.1584 33.0155 9.63383 37.1108 9.53898 38.0241C9.45046 38.8615 9.24828 40.8523 9.51046 42.9788C10.6069 41.0196 14.5315 40.4699 16.9522 40.6721C21.9069 41.0828 24.8553 44.9317 25.424 45.6995C27.2947 41.5315 31.45 38.8297 36.0131 38.8172C40.5476 38.8045 44.6934 41.4495 46.6053 45.57C47.1077 44.8684 50.0939 40.8491 55.0771 40.5394C57.6273 40.3782 61.6024 41.1366 62.4777 43.2885C62.484 43.2537 62.4872 43.2222 62.4903 43.1874C62.6707 41.3261 62.4305 39.5503 62.2252 38.0241ZM26.5713 25.9625C27.6551 26.8536 27.5983 28.323 26.8147 29.2046C26.6535 29.3879 26.4608 29.5458 26.2428 29.6691C25.9268 29.843 25.5539 29.9471 25.1369 29.9471H21.4744C19.3635 29.9471 18.4092 27.3023 20.0397 25.9625C20.9308 25.2294 22.0717 24.7839 23.3071 24.7839C24.5396 24.7839 25.6802 25.2294 26.5713 25.9625ZM15.2304 23.9906C12.0705 21.9367 12.1461 17.9172 12.2978 10.1595C12.3388 8.04857 12.9994 7.6347 13.2143 7.52401C13.2428 7.50816 13.2775 7.49232 13.3186 7.47985C14.7406 7.01212 18.7601 10.7567 19.2435 11.2118C23.4178 15.1332 23.5283 15.0479 23.8129 15.6073C19.7395 17.9521 17.0821 21.1561 15.2304 23.9906ZM29.3963 37.8912C29.0171 38.6528 26.287 37.9071 23.3071 37.095C21.3606 36.5673 20.0524 36.0144 19.335 34.8545C19.2023 34.6397 18.8577 34.071 18.8041 33.2587C18.7946 33.1102 18.7092 31.7767 19.335 31.2711C19.455 31.1763 19.591 31.1131 19.7459 31.0816C20.0334 31.0184 20.3748 31.0531 20.7477 31.1543C22.0085 31.4923 23.6232 32.5826 24.6313 33.2589C25.339 33.7327 29.9241 36.8233 29.3963 37.8912ZM45.4552 25.9625C46.3495 25.2294 47.4871 24.7839 48.7226 24.7839C49.9581 24.7839 51.0957 25.2294 51.99 25.9625C53.6173 27.3023 52.663 29.9471 50.5553 29.9471H46.8897C46.3778 29.9471 45.9354 29.7891 45.5784 29.5333C45.5247 29.4891 45.4677 29.4511 45.414 29.4038C45.3823 29.3784 45.3509 29.3501 45.3223 29.3216C44.4409 28.4556 44.3241 26.8946 45.4552 25.9625ZM53.2571 33.2589C53.2035 34.071 52.8621 34.6397 52.7262 34.8547C52.009 36.0144 50.7006 36.5674 48.7541 37.0952C45.7742 37.9073 43.0441 38.653 42.6649 37.8914C42.1371 36.8233 46.7253 33.7329 47.4333 33.2589C48.3402 32.6458 49.7495 31.6979 50.944 31.2713C51.5698 31.047 52.1353 30.968 52.5399 31.1545C52.6062 31.1862 52.6694 31.224 52.7264 31.2713C53.352 31.7769 53.2666 33.1104 53.2571 33.2589ZM56.673 24.253C54.7423 21.6333 51.7371 18.0531 48.3275 15.7812C48.5899 15.2408 49.9929 13.8883 52.7862 11.2118C53.0611 10.9464 57.2544 6.99964 58.7079 7.47985C58.7489 7.49252 58.7837 7.50836 58.8154 7.52401C59.6655 7.96322 59.7192 9.43572 59.7319 10.1595C59.8772 17.9709 59.9594 22.3096 56.673 24.253Z" fill="#C9FF3C"/>
<path d="M61.3285 43.8135L61.3064 43.7662C60.864 42.6729 58.377 41.7818 55.7639 41.7818C55.5554 41.7818 55.35 41.7881 55.1571 41.8008C50.986 42.06 48.3444 45.3147 47.6333 46.3068L46.3724 48.07L45.4592 46.1012C43.7623 42.4451 40.0684 40.0815 36.0457 40.0815H36.0172C31.9504 40.0942 28.2468 42.5022 26.5785 46.2181L25.6937 48.1868L24.4107 46.4519C23.4847 45.2038 20.8999 42.2681 16.849 41.9333C16.571 41.9079 16.2739 41.8984 15.9642 41.8984C13.4553 41.8984 11.158 42.6283 10.6144 43.5953C10.5954 43.6331 10.5796 43.6616 10.5671 43.6901C10.2954 44.3159 10.4627 45.7725 11.7426 47.9939C15.247 54.0673 24.0475 61.0952 33.4546 62.1663C34.2825 62.2579 35.101 62.3053 35.8846 62.3084H36.0046C36.0677 62.3084 36.1341 62.3084 36.1972 62.3053H36.2572L36.2826 62.3021H36.3299C45.8477 62.1472 55.1821 55.5715 59.4798 49.1567C61.2873 46.4551 61.6066 44.6002 61.3285 43.8135ZM42.6342 55.6285C42.3308 55.4642 41.7716 55.104 41.3102 54.4372C40.8266 53.742 40.6939 53.0627 40.6498 52.7182C39.6511 53.0752 38.0901 53.502 36.1469 53.5113C34.1372 53.5208 32.5257 53.0816 31.5144 52.7182C31.4639 53.0721 31.3059 53.8336 30.7213 54.5699C30.2472 55.164 29.707 55.4768 29.3973 55.6285C29.549 54.8828 29.6722 53.9412 29.6595 52.8509C29.65 51.8744 29.5363 51.0245 29.3973 50.3356C30.9393 50.5978 32.7659 50.8096 34.8229 50.857V47.8771C34.4596 47.7603 34.1057 47.5959 33.7802 47.3747L33.3156 47.0587C32.4372 46.4646 31.9126 45.4755 31.9126 44.4139C31.9126 43.3806 32.75 42.5432 33.7802 42.5432H38.2484C39.2816 42.5432 40.1191 43.3806 40.1191 44.4139C40.1191 45.4757 39.5945 46.4646 38.7161 47.0587L38.2515 47.3747C37.9228 47.5959 37.5721 47.7603 37.2056 47.8771V50.8316C39.2658 50.7463 41.0955 50.4968 42.6344 50.2027C42.4922 50.9263 42.3752 51.8237 42.369 52.8507C42.3656 53.9348 42.4856 54.8764 42.6342 55.6285Z" fill="#C9FF3C"/>
<path d="M54.6088 69.4373H17.3805C16.7243 69.4373 16.1924 68.9054 16.1924 68.2492C16.1924 67.5929 16.7243 67.061 17.3805 67.061H54.6088C55.2651 67.061 55.797 67.5929 55.797 68.2492C55.797 68.9054 55.2651 69.4373 54.6088 69.4373Z" fill="#C9FF3C"/>
</svg>
