<svg width="72" height="72" viewBox="0 0 72 72" fill="none" xmlns="http://www.w3.org/2000/svg">
<path d="M13.1857 49.9307C13.5883 49.5281 14.1418 49.2935 14.7287 49.2935H67.9629C68.9356 49.2935 69.4221 50.4675 68.7344 51.1551L58.2184 61.6711C57.8158 62.0737 57.2623 62.3083 56.6754 62.3083H3.44122C2.46854 62.3083 1.98199 61.1342 2.66973 60.4467L13.1857 49.9307Z" fill="#C9FF3C"/>
<path d="M13.1855 10.6675C13.605 10.2651 14.1584 10.0303 14.7287 10.0303H67.9629C68.9356 10.0303 69.4221 11.2044 68.7344 11.8919L58.2184 22.4079C57.8158 22.8105 57.2623 23.0451 56.6754 23.0451H3.44122C2.46854 23.0451 1.98199 21.8711 2.66973 21.1835L13.1855 10.6675Z" fill="#C9FF3C"/>
<path d="M58.2184 30.1734C57.8158 29.7708 57.2623 29.5361 56.6754 29.5361H3.44122C2.46854 29.5361 1.98199 30.7102 2.66973 31.3977L13.1857 41.9138C13.5883 42.3163 14.1418 42.551 14.7287 42.551H67.9629C68.9356 42.551 69.4221 41.3769 68.7344 40.6894L58.2184 30.1734Z" fill="#C9FF3C"/>
<path d="M54.3159 69.4373H17.0876C16.4313 69.4373 15.8994 68.9054 15.8994 68.2492C15.8994 67.5929 16.4313 67.061 17.0876 67.061H54.3159C54.9721 67.061 55.504 67.5929 55.504 68.2492C55.504 68.9054 54.9721 69.4373 54.3159 69.4373Z" fill="#C9FF3C"/>
</svg>
