<svg width="73" height="72" viewBox="0 0 73 72" fill="none" xmlns="http://www.w3.org/2000/svg">
<path d="M51.3316 21.3943C50.9274 21.2729 50.4528 21.1335 49.9167 20.9759C48.7092 20.6212 47.1401 20.1602 45.3555 19.605C47.6424 24.9039 51.2554 28.0441 53.0562 29.6097C56.6374 32.7226 61.006 35.01 65.7269 36.2498C66.0843 34.1628 66.1932 32.0553 66.0509 29.9752C65.9839 29.0028 65.8604 28.0204 65.6829 27.0508C60.9882 24.749 56.1614 22.8464 51.3316 21.3943Z" fill="#C9FA49"/>
<path d="M23.6592 7.74848C23.6592 9.41465 26.6705 10.9062 27.8042 11.4676C32.4247 13.7541 38.0309 15.9518 44.4661 17.9993C46.7635 18.7318 48.7919 19.3277 50.2731 19.7627C50.8119 19.9212 51.2889 20.0612 51.6957 20.1833C56.2853 21.5634 60.8719 23.3444 65.3464 25.4832C64.2105 20.8788 61.8279 16.5041 58.4069 12.761C57.3037 11.5505 56.0779 10.4133 54.7636 9.38019C54.6531 9.29366 54.5421 9.2095 54.431 9.12831C53.0062 8.06373 51.4731 7.09936 49.8679 6.25717C49.8321 6.24014 49.8065 6.22747 49.7822 6.21361C48.7632 5.68231 47.1437 4.90784 45.3142 4.28922C44.1462 3.89476 39.9759 2.6084 35.3111 2.6084C32.3952 2.6084 29.2868 3.11058 26.5955 4.64705C25.8687 5.06091 23.6592 6.31856 23.6592 7.74848Z" fill="#C9FA49"/>
<path d="M11.7898 48.8986C16.499 55.8788 24.2181 60.6628 32.4418 61.7008C33.8072 61.9129 35.1839 62.0153 36.5556 62.0153C48.8219 62.0165 60.8825 53.829 64.5877 42.5318C64.3788 42.5726 64.1699 42.6134 63.9606 42.6544C60.6211 43.3065 57.1674 43.9784 53.6612 43.8726C43.7444 44.0411 33.4957 39.7209 26.2946 32.3301C20.8458 26.763 17.2046 19.2914 15.9687 11.1846C12.6914 14.1609 10.09 18.0779 8.40957 22.5818L8.40977 22.581C5.24912 31.197 6.54439 41.2815 11.7898 48.8986Z" fill="#C9FA49"/>
<path d="M55.0229 69.1443H17.7946C17.1383 69.1443 16.6064 68.6125 16.6064 67.9562C16.6064 67.3 17.1383 66.7681 17.7946 66.7681H55.0229C55.6792 66.7681 56.211 67.3 56.211 67.9562C56.211 68.6125 55.6792 69.1443 55.0229 69.1443Z" fill="#C9FA49"/>
</svg>
