<svg width="72" height="72" viewBox="0 0 72 72" fill="none" xmlns="http://www.w3.org/2000/svg">
<path d="M68.0141 28.6235C67.6511 28.1741 67.1996 27.8272 66.7149 27.5238C65.4392 26.7254 64.0436 26.1999 62.6164 25.7527C59.6603 24.8266 56.626 24.266 53.5656 23.825C50.1101 23.3271 46.6357 23.04 43.1509 22.8665C42.8951 22.8539 42.8454 22.7735 42.8462 22.536C42.8547 20.135 42.8513 17.7338 42.8513 15.3328C42.8513 14.9533 42.8517 14.9529 43.2242 14.9529C49.011 14.9529 54.7981 14.9529 60.5849 14.9527C60.9223 14.9527 60.9227 14.9522 60.9227 14.6183C60.9229 10.8265 60.9229 7.03499 60.9227 3.24325C60.9227 2.90205 60.9223 2.90186 60.571 2.90186C52.4867 2.90186 44.4022 2.90186 36.318 2.90186C28.2337 2.90186 20.1492 2.90186 12.0649 2.90186C11.713 2.90186 11.7124 2.90205 11.7124 3.24245C11.7122 7.0342 11.7122 10.8257 11.7124 14.6175C11.7124 14.9522 11.7128 14.9527 12.0496 14.9527C15.3491 14.9529 18.6484 14.9527 21.9478 14.9529C24.4613 14.9529 26.9746 14.9533 29.4881 14.9524C29.6479 14.9524 29.7852 14.9294 29.7844 15.1799C29.7759 17.6672 29.7782 20.1548 29.7814 22.6424C29.7816 22.7899 29.7485 22.8553 29.5832 22.8616C28.9879 22.8842 28.3933 22.9218 27.7984 22.9568C25.8762 23.0707 23.9577 23.2319 22.0441 23.4436C20.3371 23.6323 18.6349 23.8594 16.9412 24.1479C14.413 24.5784 11.9069 25.1036 9.46999 25.9165C8.12501 26.3652 6.81014 26.8858 5.62596 27.685C5.13625 28.0155 4.68832 28.394 4.36753 28.9003C3.93603 29.5811 3.93861 30.2649 4.36792 30.9461C4.54892 31.2334 4.77763 31.4801 5.03348 31.7017C5.84003 32.4002 6.78064 32.8699 7.75372 33.2806C9.76524 34.1295 11.8678 34.6748 13.995 35.1339C16.0202 35.5709 18.0646 35.8978 20.1183 36.1668C21.5476 36.3539 22.9809 36.507 24.4168 36.6355C26.0853 36.7846 27.7568 36.8919 29.4297 36.9806C29.7796 36.9992 29.7794 37.0072 29.7794 37.3642C29.7794 45.5608 29.7794 53.7573 29.7796 61.9539C29.7796 62.3078 29.78 62.3082 30.1252 62.3082C34.2365 62.3084 38.3477 62.3088 42.459 62.3074C42.8854 62.3072 42.845 62.3573 42.845 61.9173C42.8458 53.7552 42.8456 45.5932 42.8456 37.4311C42.8456 37.3448 42.8507 37.2581 42.845 37.1721C42.8365 37.0448 42.881 36.9796 43.0181 36.9785C43.1733 36.9771 43.3282 36.9586 43.4834 36.9521C44.8898 36.8927 46.2938 36.7915 47.696 36.6729C49.7774 36.4967 51.8534 36.2681 53.9206 35.9634C56.4317 35.5931 58.9248 35.1315 61.373 34.4533C63.0716 33.9826 64.7416 33.4309 66.2901 32.5675C66.9268 32.2124 67.5232 31.8017 67.9957 31.236C68.705 30.3861 68.7098 29.4843 68.0141 28.6235ZM64.776 30.5231C64.0505 31.1595 63.1778 31.5388 62.2877 31.876C60.2785 32.6368 58.1888 33.0895 56.0824 33.473C53.8141 33.8863 51.5279 34.1723 49.2338 34.3935C47.1538 34.5941 45.0684 34.718 42.9818 34.8311C40.2895 34.977 37.5958 34.9804 35.1138 34.9766C31.87 34.9426 28.8414 34.8319 25.818 34.6044C22.7959 34.3768 19.7844 34.0544 16.7986 33.5263C14.4437 33.1097 12.1069 32.6162 9.87811 31.7154C9.28503 31.4756 8.71334 31.1926 8.18482 30.8286C7.93491 30.6566 7.70283 30.4637 7.50679 30.2308C6.98896 29.6158 6.9842 28.9979 7.49847 28.3825C7.88263 27.9229 8.38304 27.6147 8.90562 27.3425C10.293 26.6195 11.7827 26.1842 13.2912 25.8092C16.0093 25.1335 18.7723 24.7186 21.5518 24.4002C24.1859 24.0982 26.8279 23.8994 29.4761 23.7725C29.7361 23.76 29.7905 23.8343 29.7899 24.0804C29.7816 26.8096 29.7879 29.5385 29.7794 32.2677C29.7786 32.518 29.8339 32.5952 30.1004 32.6113C33.8541 32.8358 37.6089 32.8449 41.3648 32.6895C41.7701 32.6726 42.1741 32.62 42.5792 32.6132C42.8074 32.6095 42.843 32.5158 42.8379 32.3168C42.825 31.8249 42.8337 31.3324 42.8337 30.8401C42.8337 28.5948 42.8337 26.3492 42.8337 24.1038C42.8337 23.7739 42.8343 23.7691 43.1743 23.7844C45.469 23.8873 47.7587 24.0555 50.0435 24.2935C52.7747 24.5781 55.4911 24.9565 58.1745 25.5476C59.8863 25.9246 61.579 26.3696 63.1816 27.1003C63.7485 27.3587 64.2948 27.6543 64.7671 28.0684C65.6846 28.8734 65.6935 29.7183 64.776 30.5231Z" fill="#C9FF3C"/>
<path d="M54.9028 69.4373H17.6745C17.0182 69.4373 16.4863 68.9054 16.4863 68.2492C16.4863 67.5929 17.0182 67.061 17.6745 67.061H54.9028C55.559 67.061 56.0909 67.5929 56.0909 68.2492C56.0909 68.9054 55.559 69.4373 54.9028 69.4373Z" fill="#C9FF3C"/>
</svg>
