<svg width="72" height="72" viewBox="0 0 72 72" fill="none" xmlns="http://www.w3.org/2000/svg">
<path d="M42.6654 61.9694C38.4263 61.9694 35.332 60.9484 33.3829 58.9062C31.5773 57.1776 30.5294 54.8043 30.4686 52.3055C30.4466 51.5463 30.6227 50.7946 30.9791 50.1239C31.3116 49.5445 31.792 49.0637 32.3712 48.7306C33.736 48.05 35.3413 48.05 36.7061 48.7306C37.2844 49.0623 37.7624 49.5435 38.0905 50.1239C38.4572 50.7912 38.6398 51.5443 38.6192 52.3055C38.657 53.2146 38.3963 54.1111 37.8766 54.8582C37.4436 55.4679 36.8245 55.921 36.1123 56.1493C36.8087 57.0361 37.7941 57.6503 38.8969 57.8852C40.1307 58.2436 41.4084 58.4278 42.6932 58.4327C44.3942 58.4476 46.0601 57.9493 47.4736 57.0034C48.9402 55.9673 50.0337 54.4863 50.5925 52.7799C51.3006 50.749 51.6464 48.6094 51.6135 46.4589C51.6705 44.2168 51.2923 41.9849 50.4996 39.8869C49.9034 38.2088 48.7715 36.7736 47.2786 35.8026C45.891 34.9246 44.2803 34.4638 42.6383 34.4755C41.2074 34.5967 39.8278 35.065 38.6188 35.8401L35.6384 37.3344V35.8401L49.0327 17.8715H30.4686V36.5177C30.4161 37.8633 30.7722 39.1932 31.4896 40.3328C32.1958 41.3427 33.3787 41.9097 34.6085 41.8271C35.7255 41.8045 36.8055 41.4239 37.6899 40.7411C38.6923 40.0065 39.5646 39.1092 40.2705 38.0862C40.3341 37.9068 40.4513 37.7514 40.6062 37.6409C40.7305 37.5334 40.8894 37.4742 41.0537 37.4738C41.3763 37.5033 41.6815 37.633 41.9264 37.8449C42.2367 38.1916 42.4054 38.6421 42.3997 39.1073C42.3638 39.4199 42.308 39.73 42.2325 40.0354C41.5731 41.6317 40.4676 43.004 39.0485 43.9883C37.7305 44.8802 36.1738 45.3531 34.5823 45.345C30.5629 45.345 27.7785 44.5529 26.2289 42.9687C24.62 41.2 23.7903 38.8581 23.9269 36.4708V17.8711H14.4844V14.4067H23.9709V6.50732L21.7989 4.33382V2.5625H28.1014L30.4688 3.78787V14.4065L54.9924 14.3318L57.434 16.7823L42.3965 31.8929C43.305 31.5275 44.2617 31.296 45.2368 31.2059C47.1665 31.2905 49.0493 31.8279 50.7329 32.7749C52.6824 33.7016 54.3254 35.1678 55.4672 36.9997C56.4902 38.5504 57.2142 40.2788 57.6023 42.0956C57.9213 43.5287 58.0922 44.9907 58.1128 46.4589C58.1227 49.2605 57.4875 52.0269 56.2563 54.5435C55.0888 56.9806 53.1238 58.9456 50.6867 60.1131C48.1917 61.3425 45.4465 61.9777 42.6654 61.9694Z" fill="#C9FA49"/>
<path d="M54.9126 69.098H17.6842C17.028 69.098 16.4961 68.5661 16.4961 67.9098C16.4961 67.2536 17.028 66.7217 17.6842 66.7217H54.9126C55.5688 66.7217 56.1007 67.2536 56.1007 67.9098C56.1007 68.5661 55.5688 69.098 54.9126 69.098Z" fill="#C9FA49"/>
</svg>
