<svg width="73" height="72" viewBox="0 0 73 72" fill="none" xmlns="http://www.w3.org/2000/svg">
<path d="M54.043 10.4717L8.86816 2.5625L33.423 61.9694L65.1067 21.9688L54.043 10.4717ZM42.1339 24.2557L53.6067 14.7415L60.3363 20.942L42.1339 24.2557ZM37.6785 23.6339L17.9259 7.44575L49.8845 13.3399L37.6785 23.6339ZM39.4607 27.8758L59.6773 24.6177L36.5647 52.4645L39.4607 27.8758ZM15.2433 9.06082L36.0262 26.697L33.0189 52.4829L15.2433 9.06082Z" fill="#C9FA49"/>
<path d="M55.2055 69.098H17.9772C17.321 69.098 16.7891 68.5661 16.7891 67.9098C16.7891 67.2536 17.321 66.7217 17.9772 66.7217H55.2055C55.8618 66.7217 56.3937 67.2536 56.3937 67.9098C56.3937 68.5661 55.8618 69.098 55.2055 69.098Z" fill="#C9FA49"/>
</svg>
